<mxfile host="app.diagrams.net" modified="2020-12-03T14:47:47.219Z" agent="5.0 (Windows NT 10.0; Win64; x64) AppleWebKit/537.36 (KHTML, like Gecko) Chrome/86.0.4240.198 Safari/537.36" etag="uhfwEE0Jpo1ltiOpOsCM" version="13.10.6" type="github">
  <diagram id="6a731a19-8d31-9384-78a2-239565b7b9f0" name="Page-1">
    <mxGraphModel dx="4641" dy="2627" grid="1" gridSize="10" guides="1" tooltips="1" connect="1" arrows="1" fold="1" page="1" pageScale="1" pageWidth="1169" pageHeight="827" background="#ffffff" math="0" shadow="1">
      <root>
        <mxCell id="0" />
        <mxCell id="1" parent="0" />
        <mxCell id="-ZtEjUgd7mH6jblW32xS-607" value="" style="rounded=1;whiteSpace=wrap;html=1;rotation=-90;fillColor=#fff2cc;strokeColor=#d6b656;strokeWidth=10;" vertex="1" parent="1">
          <mxGeometry x="170" y="-70" width="1380" height="280" as="geometry" />
        </mxCell>
        <mxCell id="-ZtEjUgd7mH6jblW32xS-606" value="" style="rounded=1;whiteSpace=wrap;html=1;rotation=-90;fillColor=#dae8fc;strokeColor=#6c8ebf;strokeWidth=10;" vertex="1" parent="1">
          <mxGeometry x="-150" y="-210" width="1380" height="280" as="geometry" />
        </mxCell>
        <mxCell id="-ZtEjUgd7mH6jblW32xS-604" style="edgeStyle=orthogonalEdgeStyle;rounded=0;orthogonalLoop=1;jettySize=auto;html=1;exitX=1;exitY=0.5;exitDx=0;exitDy=0;entryX=0.5;entryY=0;entryDx=0;entryDy=0;strokeWidth=10;" edge="1" parent="1" source="-ZtEjUgd7mH6jblW32xS-143" target="-ZtEjUgd7mH6jblW32xS-568">
          <mxGeometry relative="1" as="geometry" />
        </mxCell>
        <mxCell id="-ZtEjUgd7mH6jblW32xS-143" value="&lt;h1&gt;&lt;font style=&quot;font-size: 35px&quot;&gt;StartView&lt;/font&gt;&lt;/h1&gt;" style="rounded=0;whiteSpace=wrap;html=1;strokeWidth=10;" vertex="1" parent="1">
          <mxGeometry x="-1120" y="-740" width="200" height="240" as="geometry" />
        </mxCell>
        <mxCell id="-ZtEjUgd7mH6jblW32xS-144" value="&lt;h1&gt;&lt;font style=&quot;font-size: 35px&quot;&gt;EndView&lt;/font&gt;&lt;/h1&gt;" style="rounded=0;whiteSpace=wrap;html=1;strokeWidth=10;" vertex="1" parent="1">
          <mxGeometry x="-1120" y="-360" width="200" height="240" as="geometry" />
        </mxCell>
        <mxCell id="-ZtEjUgd7mH6jblW32xS-566" value="Text" style="text;html=1;align=center;verticalAlign=middle;resizable=0;points=[];autosize=1;strokeWidth=10;" vertex="1" parent="1">
          <mxGeometry x="-20" width="40" height="20" as="geometry" />
        </mxCell>
        <mxCell id="-ZtEjUgd7mH6jblW32xS-567" value="Text" style="text;html=1;align=center;verticalAlign=middle;resizable=0;points=[];autosize=1;strokeWidth=10;" vertex="1" parent="1">
          <mxGeometry x="260" y="-10" width="40" height="20" as="geometry" />
        </mxCell>
        <mxCell id="-ZtEjUgd7mH6jblW32xS-605" style="edgeStyle=orthogonalEdgeStyle;rounded=0;orthogonalLoop=1;jettySize=auto;html=1;exitX=1;exitY=0.5;exitDx=0;exitDy=0;entryX=0.5;entryY=0;entryDx=0;entryDy=0;strokeWidth=10;endArrow=blockThin;endFill=1;startArrow=classic;startFill=1;" edge="1" parent="1" source="-ZtEjUgd7mH6jblW32xS-568" target="-ZtEjUgd7mH6jblW32xS-570">
          <mxGeometry relative="1" as="geometry" />
        </mxCell>
        <mxCell id="-ZtEjUgd7mH6jblW32xS-617" style="edgeStyle=none;rounded=0;orthogonalLoop=1;jettySize=auto;html=1;exitX=0;exitY=0.5;exitDx=0;exitDy=0;strokeWidth=10;" edge="1" parent="1" source="-ZtEjUgd7mH6jblW32xS-568" target="-ZtEjUgd7mH6jblW32xS-144">
          <mxGeometry relative="1" as="geometry" />
        </mxCell>
        <mxCell id="-ZtEjUgd7mH6jblW32xS-568" value="&lt;h1&gt;&lt;font style=&quot;font-size: 40px&quot;&gt;Controller&lt;/font&gt;&lt;/h1&gt;" style="rounded=0;whiteSpace=wrap;html=1;fillColor=#f8cecc;strokeColor=#b85450;strokeWidth=10;" vertex="1" parent="1">
          <mxGeometry x="-430" y="-360" width="200" height="240" as="geometry" />
        </mxCell>
        <mxCell id="-ZtEjUgd7mH6jblW32xS-594" style="edgeStyle=orthogonalEdgeStyle;rounded=0;orthogonalLoop=1;jettySize=auto;html=1;exitX=0.5;exitY=1;exitDx=0;exitDy=0;strokeWidth=10;endArrow=none;endFill=0;" edge="1" parent="1" source="-ZtEjUgd7mH6jblW32xS-569" target="-ZtEjUgd7mH6jblW32xS-581">
          <mxGeometry relative="1" as="geometry">
            <Array as="points">
              <mxPoint x="-20" y="400" />
              <mxPoint x="-180" y="400" />
            </Array>
          </mxGeometry>
        </mxCell>
        <mxCell id="-ZtEjUgd7mH6jblW32xS-569" value="&lt;br&gt;&lt;br&gt;&lt;h1 style=&quot;color: rgb(0 , 0 , 0) ; font-family: &amp;#34;helvetica&amp;#34; ; font-style: normal ; letter-spacing: normal ; text-align: center ; text-indent: 0px ; text-transform: none ; word-spacing: 0px ; background-color: rgb(248 , 249 , 250)&quot;&gt;&lt;font style=&quot;font-size: 35px&quot;&gt;DBUtil&lt;/font&gt;&lt;/h1&gt;&lt;br&gt;" style="rounded=0;whiteSpace=wrap;html=1;strokeWidth=10;" vertex="1" parent="1">
          <mxGeometry x="-120" y="110" width="200" height="240" as="geometry" />
        </mxCell>
        <mxCell id="-ZtEjUgd7mH6jblW32xS-570" value="&lt;br&gt;&lt;br&gt;&lt;h1 style=&quot;font-family: &amp;#34;helvetica&amp;#34;&quot;&gt;&lt;font style=&quot;font-size: 35px&quot;&gt;Service&lt;/font&gt;&lt;/h1&gt;&lt;div&gt;&lt;font style=&quot;font-size: 35px&quot;&gt;&lt;br&gt;&lt;/font&gt;&lt;/div&gt;" style="rounded=0;whiteSpace=wrap;html=1;strokeWidth=10;" vertex="1" parent="1">
          <mxGeometry x="-120" y="-190" width="200" height="240" as="geometry" />
        </mxCell>
        <mxCell id="-ZtEjUgd7mH6jblW32xS-589" style="edgeStyle=orthogonalEdgeStyle;rounded=0;orthogonalLoop=1;jettySize=auto;html=1;exitX=0.75;exitY=1;exitDx=0;exitDy=0;entryX=0.1;entryY=0.5;entryDx=0;entryDy=0;entryPerimeter=0;strokeWidth=10;" edge="1" parent="1" source="-ZtEjUgd7mH6jblW32xS-571" target="-ZtEjUgd7mH6jblW32xS-575">
          <mxGeometry relative="1" as="geometry" />
        </mxCell>
        <mxCell id="-ZtEjUgd7mH6jblW32xS-591" style="edgeStyle=orthogonalEdgeStyle;rounded=0;orthogonalLoop=1;jettySize=auto;html=1;exitX=1;exitY=0.5;exitDx=0;exitDy=0;strokeWidth=10;" edge="1" parent="1" source="-ZtEjUgd7mH6jblW32xS-571">
          <mxGeometry relative="1" as="geometry">
            <mxPoint x="1270" y="60" as="targetPoint" />
          </mxGeometry>
        </mxCell>
        <mxCell id="-ZtEjUgd7mH6jblW32xS-601" style="edgeStyle=orthogonalEdgeStyle;rounded=0;orthogonalLoop=1;jettySize=auto;html=1;exitX=0;exitY=0.5;exitDx=0;exitDy=0;strokeWidth=10;endArrow=classic;endFill=1;startArrow=classic;startFill=1;" edge="1" parent="1" source="-ZtEjUgd7mH6jblW32xS-571">
          <mxGeometry relative="1" as="geometry">
            <mxPoint x="80" y="-80" as="targetPoint" />
            <Array as="points">
              <mxPoint x="270" y="400" />
              <mxPoint x="270" y="-80" />
            </Array>
          </mxGeometry>
        </mxCell>
        <mxCell id="-ZtEjUgd7mH6jblW32xS-611" style="rounded=0;orthogonalLoop=1;jettySize=auto;html=1;exitX=0;exitY=0.25;exitDx=0;exitDy=0;entryX=1;entryY=0.5;entryDx=0;entryDy=0;elbow=vertical;strokeColor=#CC0000;strokeWidth=10;endArrow=none;endFill=0;startArrow=classic;startFill=1;" edge="1" parent="1" source="-ZtEjUgd7mH6jblW32xS-571" target="-ZtEjUgd7mH6jblW32xS-569">
          <mxGeometry relative="1" as="geometry" />
        </mxCell>
        <mxCell id="-ZtEjUgd7mH6jblW32xS-571" value="&lt;h1 style=&quot;font-family: &amp;#34;helvetica&amp;#34;&quot;&gt;&lt;span style=&quot;font-size: 35px&quot;&gt;Problem&lt;/span&gt;&lt;/h1&gt;" style="rounded=0;whiteSpace=wrap;html=1;strokeWidth=10;" vertex="1" parent="1">
          <mxGeometry x="450" y="280" width="200" height="240" as="geometry" />
        </mxCell>
        <mxCell id="-ZtEjUgd7mH6jblW32xS-588" style="edgeStyle=orthogonalEdgeStyle;rounded=0;orthogonalLoop=1;jettySize=auto;html=1;exitX=0.75;exitY=1;exitDx=0;exitDy=0;entryX=0;entryY=0.5;entryDx=0;entryDy=0;strokeWidth=10;" edge="1" parent="1" source="-ZtEjUgd7mH6jblW32xS-572" target="-ZtEjUgd7mH6jblW32xS-576">
          <mxGeometry relative="1" as="geometry" />
        </mxCell>
        <mxCell id="-ZtEjUgd7mH6jblW32xS-590" style="edgeStyle=orthogonalEdgeStyle;rounded=0;orthogonalLoop=1;jettySize=auto;html=1;exitX=1;exitY=0.5;exitDx=0;exitDy=0;entryX=0.5;entryY=1;entryDx=0;entryDy=0;entryPerimeter=0;strokeWidth=10;" edge="1" parent="1" source="-ZtEjUgd7mH6jblW32xS-572" target="-ZtEjUgd7mH6jblW32xS-584">
          <mxGeometry relative="1" as="geometry" />
        </mxCell>
        <mxCell id="-ZtEjUgd7mH6jblW32xS-599" style="edgeStyle=orthogonalEdgeStyle;rounded=0;orthogonalLoop=1;jettySize=auto;html=1;exitX=0;exitY=0.5;exitDx=0;exitDy=0;strokeWidth=10;endArrow=classic;endFill=1;startArrow=classic;startFill=1;" edge="1" parent="1" source="-ZtEjUgd7mH6jblW32xS-572">
          <mxGeometry relative="1" as="geometry">
            <mxPoint x="270" y="-70" as="targetPoint" />
          </mxGeometry>
        </mxCell>
        <mxCell id="-ZtEjUgd7mH6jblW32xS-612" style="rounded=0;orthogonalLoop=1;jettySize=auto;html=1;exitX=0;exitY=0.25;exitDx=0;exitDy=0;elbow=vertical;strokeColor=#CC0000;strokeWidth=10;endArrow=none;endFill=0;startArrow=classic;startFill=1;" edge="1" parent="1" source="-ZtEjUgd7mH6jblW32xS-572">
          <mxGeometry relative="1" as="geometry">
            <mxPoint x="80" y="240" as="targetPoint" />
          </mxGeometry>
        </mxCell>
        <mxCell id="-ZtEjUgd7mH6jblW32xS-572" value="&lt;h1 style=&quot;font-family: &amp;#34;helvetica&amp;#34;&quot;&gt;&lt;span style=&quot;font-size: 35px&quot;&gt;Patient&lt;/span&gt;&lt;/h1&gt;" style="rounded=0;whiteSpace=wrap;html=1;strokeWidth=10;" vertex="1" parent="1">
          <mxGeometry x="450" y="-40" width="200" height="240" as="geometry" />
        </mxCell>
        <mxCell id="-ZtEjUgd7mH6jblW32xS-587" style="edgeStyle=orthogonalEdgeStyle;rounded=0;orthogonalLoop=1;jettySize=auto;html=1;exitX=0.75;exitY=1;exitDx=0;exitDy=0;strokeWidth=10;" edge="1" parent="1" source="-ZtEjUgd7mH6jblW32xS-573" target="-ZtEjUgd7mH6jblW32xS-577">
          <mxGeometry relative="1" as="geometry" />
        </mxCell>
        <mxCell id="-ZtEjUgd7mH6jblW32xS-592" style="edgeStyle=orthogonalEdgeStyle;rounded=0;orthogonalLoop=1;jettySize=auto;html=1;exitX=1;exitY=0.25;exitDx=0;exitDy=0;entryX=0.5;entryY=0;entryDx=0;entryDy=0;entryPerimeter=0;strokeWidth=10;" edge="1" parent="1" source="-ZtEjUgd7mH6jblW32xS-573" target="-ZtEjUgd7mH6jblW32xS-584">
          <mxGeometry relative="1" as="geometry" />
        </mxCell>
        <mxCell id="-ZtEjUgd7mH6jblW32xS-600" style="edgeStyle=orthogonalEdgeStyle;rounded=0;orthogonalLoop=1;jettySize=auto;html=1;exitX=0;exitY=0.5;exitDx=0;exitDy=0;strokeWidth=10;endArrow=classic;endFill=1;startArrow=classic;startFill=1;" edge="1" parent="1" source="-ZtEjUgd7mH6jblW32xS-573">
          <mxGeometry relative="1" as="geometry">
            <mxPoint x="80" y="-70" as="targetPoint" />
            <Array as="points">
              <mxPoint x="270" y="-240" />
              <mxPoint x="270" y="-80" />
              <mxPoint x="80" y="-80" />
            </Array>
          </mxGeometry>
        </mxCell>
        <mxCell id="-ZtEjUgd7mH6jblW32xS-613" style="rounded=0;orthogonalLoop=1;jettySize=auto;html=1;exitX=0;exitY=0.25;exitDx=0;exitDy=0;elbow=vertical;strokeColor=#CC0000;strokeWidth=10;endArrow=none;endFill=0;startArrow=classic;startFill=1;" edge="1" parent="1" source="-ZtEjUgd7mH6jblW32xS-573">
          <mxGeometry relative="1" as="geometry">
            <mxPoint x="80" y="240" as="targetPoint" />
          </mxGeometry>
        </mxCell>
        <mxCell id="-ZtEjUgd7mH6jblW32xS-573" value="&lt;h1 style=&quot;font-family: &amp;#34;helvetica&amp;#34;&quot;&gt;&lt;span style=&quot;font-size: 35px&quot;&gt;Infomation&lt;/span&gt;&lt;/h1&gt;&lt;h1 style=&quot;font-family: &amp;#34;helvetica&amp;#34;&quot;&gt;&lt;span style=&quot;font-size: 35px&quot;&gt;Recipient&lt;/span&gt;&lt;/h1&gt;" style="rounded=0;whiteSpace=wrap;html=1;strokeWidth=10;" vertex="1" parent="1">
          <mxGeometry x="450" y="-360" width="200" height="240" as="geometry" />
        </mxCell>
        <mxCell id="-ZtEjUgd7mH6jblW32xS-586" style="edgeStyle=orthogonalEdgeStyle;rounded=0;orthogonalLoop=1;jettySize=auto;html=1;exitX=0.75;exitY=1;exitDx=0;exitDy=0;entryX=0;entryY=0.75;entryDx=0;entryDy=0;strokeWidth=10;" edge="1" parent="1" source="-ZtEjUgd7mH6jblW32xS-574" target="-ZtEjUgd7mH6jblW32xS-578">
          <mxGeometry relative="1" as="geometry" />
        </mxCell>
        <mxCell id="-ZtEjUgd7mH6jblW32xS-593" style="edgeStyle=orthogonalEdgeStyle;rounded=0;orthogonalLoop=1;jettySize=auto;html=1;exitX=1;exitY=0.25;exitDx=0;exitDy=0;entryX=0.5;entryY=0;entryDx=0;entryDy=0;entryPerimeter=0;strokeWidth=10;" edge="1" parent="1" source="-ZtEjUgd7mH6jblW32xS-574" target="-ZtEjUgd7mH6jblW32xS-584">
          <mxGeometry relative="1" as="geometry">
            <Array as="points">
              <mxPoint x="1269" y="-620" />
            </Array>
          </mxGeometry>
        </mxCell>
        <mxCell id="-ZtEjUgd7mH6jblW32xS-602" style="edgeStyle=orthogonalEdgeStyle;rounded=0;orthogonalLoop=1;jettySize=auto;html=1;exitX=0;exitY=0.5;exitDx=0;exitDy=0;entryX=1;entryY=0.5;entryDx=0;entryDy=0;strokeWidth=10;endArrow=classic;endFill=1;startArrow=classic;startFill=1;" edge="1" parent="1" source="-ZtEjUgd7mH6jblW32xS-574" target="-ZtEjUgd7mH6jblW32xS-570">
          <mxGeometry relative="1" as="geometry">
            <Array as="points">
              <mxPoint x="270" y="-560" />
              <mxPoint x="270" y="-80" />
              <mxPoint x="80" y="-80" />
            </Array>
          </mxGeometry>
        </mxCell>
        <mxCell id="-ZtEjUgd7mH6jblW32xS-614" style="rounded=0;orthogonalLoop=1;jettySize=auto;html=1;exitX=0;exitY=0.75;exitDx=0;exitDy=0;elbow=vertical;strokeColor=#CC0000;strokeWidth=10;endArrow=none;endFill=0;startArrow=classic;startFill=1;" edge="1" parent="1" source="-ZtEjUgd7mH6jblW32xS-574">
          <mxGeometry relative="1" as="geometry">
            <mxPoint x="80" y="240" as="targetPoint" />
          </mxGeometry>
        </mxCell>
        <mxCell id="-ZtEjUgd7mH6jblW32xS-574" value="&lt;br&gt;&lt;br&gt;&lt;h1 style=&quot;font-family: &amp;#34;helvetica&amp;#34;&quot;&gt;&lt;span style=&quot;font-size: 35px&quot;&gt;Custodian&lt;/span&gt;&lt;/h1&gt;&lt;div&gt;&lt;font style=&quot;font-size: 35px&quot;&gt;&lt;br&gt;&lt;/font&gt;&lt;/div&gt;" style="rounded=0;whiteSpace=wrap;html=1;strokeWidth=10;" vertex="1" parent="1">
          <mxGeometry x="440" y="-680" width="200" height="240" as="geometry" />
        </mxCell>
        <mxCell id="-ZtEjUgd7mH6jblW32xS-575" value="&lt;h1 style=&quot;font-family: &amp;#34;helvetica&amp;#34;&quot;&gt;&lt;span style=&quot;font-size: 35px&quot;&gt;Problem&lt;/span&gt;&lt;/h1&gt;" style="rounded=0;whiteSpace=wrap;html=1;strokeWidth=10;" vertex="1" parent="1">
          <mxGeometry x="760" y="480" width="200" height="240" as="geometry" />
        </mxCell>
        <mxCell id="-ZtEjUgd7mH6jblW32xS-576" value="&lt;h1 style=&quot;font-family: &amp;#34;helvetica&amp;#34;&quot;&gt;&lt;span style=&quot;font-size: 35px&quot;&gt;Patient&lt;/span&gt;&lt;/h1&gt;" style="rounded=0;whiteSpace=wrap;html=1;strokeWidth=10;" vertex="1" parent="1">
          <mxGeometry x="760" y="140" width="200" height="240" as="geometry" />
        </mxCell>
        <mxCell id="-ZtEjUgd7mH6jblW32xS-577" value="&lt;h1 style=&quot;font-family: &amp;#34;helvetica&amp;#34;&quot;&gt;&lt;span style=&quot;font-size: 35px&quot;&gt;Infomation&lt;/span&gt;&lt;/h1&gt;&lt;h1 style=&quot;font-family: &amp;#34;helvetica&amp;#34;&quot;&gt;&lt;span style=&quot;font-size: 35px&quot;&gt;Recipient&lt;/span&gt;&lt;/h1&gt;" style="rounded=0;whiteSpace=wrap;html=1;strokeWidth=10;" vertex="1" parent="1">
          <mxGeometry x="750" y="-200" width="200" height="240" as="geometry" />
        </mxCell>
        <mxCell id="-ZtEjUgd7mH6jblW32xS-578" value="&lt;br&gt;&lt;br&gt;&lt;h1 style=&quot;font-family: &amp;#34;helvetica&amp;#34;&quot;&gt;&lt;span style=&quot;font-size: 35px&quot;&gt;Custodian&lt;/span&gt;&lt;/h1&gt;&lt;div&gt;&lt;span style=&quot;font-size: 35px&quot;&gt;&lt;br&gt;&lt;/span&gt;&lt;/div&gt;" style="rounded=0;whiteSpace=wrap;html=1;strokeWidth=10;" vertex="1" parent="1">
          <mxGeometry x="760" y="-580" width="200" height="240" as="geometry" />
        </mxCell>
        <mxCell id="-ZtEjUgd7mH6jblW32xS-595" style="edgeStyle=orthogonalEdgeStyle;rounded=0;orthogonalLoop=1;jettySize=auto;html=1;exitX=0.5;exitY=0;exitDx=0;exitDy=0;entryX=0.5;entryY=1;entryDx=0;entryDy=0;strokeWidth=10;endArrow=none;endFill=0;" edge="1" parent="1" source="-ZtEjUgd7mH6jblW32xS-580" target="-ZtEjUgd7mH6jblW32xS-569">
          <mxGeometry relative="1" as="geometry">
            <Array as="points">
              <mxPoint x="140" y="400" />
              <mxPoint x="-20" y="400" />
            </Array>
          </mxGeometry>
        </mxCell>
        <mxCell id="-ZtEjUgd7mH6jblW32xS-580" value="&lt;br&gt;&lt;br&gt;&lt;h1 style=&quot;color: rgb(0 , 0 , 0) ; font-family: &amp;#34;helvetica&amp;#34; ; font-style: normal ; letter-spacing: normal ; text-align: center ; text-indent: 0px ; text-transform: none ; word-spacing: 0px ; background-color: rgb(248 , 249 , 250)&quot;&gt;&lt;font style=&quot;font-size: 35px&quot;&gt;DBInfo&lt;/font&gt;&lt;/h1&gt;&lt;br&gt;" style="rounded=0;whiteSpace=wrap;html=1;strokeWidth=10;" vertex="1" parent="1">
          <mxGeometry x="40" y="440" width="200" height="240" as="geometry" />
        </mxCell>
        <mxCell id="-ZtEjUgd7mH6jblW32xS-581" value="&lt;br&gt;&lt;span style=&quot;font-size: 35px ; font-family: &amp;#34;helvetica&amp;#34;&quot;&gt;allSql&lt;/span&gt;&lt;br&gt;" style="rounded=0;whiteSpace=wrap;html=1;strokeWidth=10;" vertex="1" parent="1">
          <mxGeometry x="-280" y="440" width="200" height="240" as="geometry" />
        </mxCell>
        <mxCell id="-ZtEjUgd7mH6jblW32xS-584" value="&lt;h1 style=&quot;font-family: &amp;#34;helvetica&amp;#34;&quot;&gt;&lt;span style=&quot;font-size: 35px&quot;&gt;SQL DB&lt;/span&gt;&lt;/h1&gt;" style="shape=cylinder3;whiteSpace=wrap;html=1;boundedLbl=1;backgroundOutline=1;size=15;strokeWidth=10;" vertex="1" parent="1">
          <mxGeometry x="1169" y="-230" width="200" height="270" as="geometry" />
        </mxCell>
        <mxCell id="-ZtEjUgd7mH6jblW32xS-608" value="&lt;font style=&quot;font-size: 45px&quot;&gt;&lt;b&gt;&lt;br&gt;&lt;br&gt;&lt;/b&gt;&lt;/font&gt;&lt;h1 style=&quot;font-family: &amp;#34;helvetica&amp;#34; ; font-size: 45px&quot;&gt;&lt;font style=&quot;font-size: 45px&quot;&gt;DTO&lt;/font&gt;&lt;/h1&gt;&lt;div style=&quot;font-size: 45px&quot;&gt;&lt;span&gt;&lt;br&gt;&lt;/span&gt;&lt;/div&gt;" style="shape=process;whiteSpace=wrap;html=1;backgroundOutline=1;fillColor=#fff2cc;strokeColor=#d6b656;strokeWidth=10;" vertex="1" parent="1">
          <mxGeometry x="980" y="-590" width="210" height="130" as="geometry" />
        </mxCell>
        <mxCell id="-ZtEjUgd7mH6jblW32xS-609" value="&lt;b style=&quot;font-size: 45px&quot;&gt;&lt;font style=&quot;font-size: 45px&quot;&gt;&lt;br&gt;&lt;br&gt;&lt;/font&gt;&lt;/b&gt;&lt;h1 style=&quot;font-family: &amp;#34;helvetica&amp;#34; ; font-size: 45px&quot;&gt;&lt;font style=&quot;font-size: 45px&quot;&gt;DAO&lt;/font&gt;&lt;/h1&gt;&lt;div style=&quot;font-size: 45px&quot;&gt;&lt;span&gt;&lt;br&gt;&lt;/span&gt;&lt;/div&gt;" style="shape=process;whiteSpace=wrap;html=1;backgroundOutline=1;fillColor=#dae8fc;strokeColor=#6c8ebf;strokeWidth=10;" vertex="1" parent="1">
          <mxGeometry x="200" y="-740" width="210" height="130" as="geometry" />
        </mxCell>
        <mxCell id="-ZtEjUgd7mH6jblW32xS-618" style="edgeStyle=none;rounded=0;orthogonalLoop=1;jettySize=auto;html=1;exitX=0.5;exitY=0;exitDx=0;exitDy=0;strokeColor=#000000;strokeWidth=10;" edge="1" parent="1" source="-ZtEjUgd7mH6jblW32xS-570" target="-ZtEjUgd7mH6jblW32xS-570">
          <mxGeometry relative="1" as="geometry" />
        </mxCell>
      </root>
    </mxGraphModel>
  </diagram>
</mxfile>
